<svg xmlns="http://www.w3.org/2000/svg" fill="none" viewBox="0 0 118 24">
  <mask id="a" width="118" height="20" x="0" y="2" maskUnits="userSpaceOnUse" style="mask-type:luminance">
    <path fill="#fff" d="M117.273 2H0v20h117.273V2Z"/>
  </mask>
  <g fill="#0B1927" mask="url(#a)">
    <path d="M11.06 14.618H.04a.041.041 0 0 0-.04.04v6.953c0 .022.018.04.04.04h5.661c.873 0 1.679-.47 2.114-1.234l3.279-5.738a.04.04 0 0 0-.034-.059v-.002ZM12.56 2.02a.04.04 0 0 0-.07 0L9.245 7.761a2.492 2.492 0 0 0 .005 2.459l5.827 10.197a2.438 2.438 0 0 0 2.116 1.234h6.525c.03-.002.05-.035.034-.063L12.558 2.02ZM71.599 9.382c-3.56 0-5.803 2.43-5.803 6.308 0 3.879 2.243 6.308 5.918 6.308 3.03 0 4.9-2.055 5.502-4.322H74.79c-.208.725-1.133 2.313-3.143 2.313-2.15 0-3.423-1.66-3.423-3.67h9.064c0-4.252-1.874-6.939-5.688-6.939v.002Zm-3.376 5.116c0-1.845 1.41-3.178 3.376-3.178 1.965 0 3.26 1.333 3.26 3.178h-6.636ZM102.669 5.107c-.671 0-1.364.443-1.364 1.285 0 .841.693 1.308 1.364 1.308.716 0 1.387-.467 1.387-1.308 0-.842-.671-1.285-1.387-1.285ZM103.895 9.708h-2.429v11.94h2.429V9.708ZM111.331 9.382c-3.699 0-5.942 2.594-5.942 6.308s2.243 6.308 5.942 6.308c3.699 0 5.943-2.594 5.943-6.308s-2.244-6.308-5.943-6.308Zm0 10.608c-2.312 0-3.515-1.845-3.515-4.298 0-2.454 1.203-4.299 3.515-4.299 2.312 0 3.515 1.822 3.515 4.299 0 2.477-1.203 4.298-3.515 4.298ZM48.88 14.429c-1.711-.398-3.03-.491-3.03-1.705 0-.842.786-1.402 2.244-1.402 1.896 0 2.358.958 2.52 1.893h2.358c-.162-2.08-1.687-3.832-4.902-3.832-2.96 0-4.67 1.566-4.67 3.529 0 2.71 2.543 3.084 4.416 3.528 1.733.42 3.144.537 3.144 2.033 0 .749-.717 1.588-2.404 1.588-2.498 0-3.052-1.098-3.168-2.383h-2.359C43.145 20.202 44.786 22 48.601 22c2.867 0 4.81-1.425 4.81-3.715 0-2.85-2.359-3.342-4.532-3.855v-.001ZM60.186 14.429c-1.71-.398-3.029-.491-3.029-1.705 0-.842.786-1.402 2.244-1.402 1.896 0 2.358.958 2.52 1.893h2.358c-.162-2.08-1.687-3.832-4.902-3.832-2.96 0-4.67 1.566-4.67 3.529 0 2.71 2.542 3.084 4.415 3.528 1.734.42 3.145.537 3.145 2.033 0 .749-.717 1.588-2.404 1.588-2.498 0-3.053-1.098-3.168-2.383h-2.36C54.453 20.202 56.094 22 59.909 22c2.867 0 4.81-1.425 4.81-3.715 0-2.85-2.359-3.342-4.532-3.855v-.001ZM84.087 14.429c-1.71-.398-3.029-.491-3.029-1.705 0-.842.786-1.402 2.243-1.402 1.897 0 2.36.958 2.52 1.893h2.359c-.163-2.08-1.687-3.832-4.902-3.832-2.96 0-4.67 1.566-4.67 3.529 0 2.71 2.542 3.084 4.415 3.528 1.734.42 3.145.537 3.145 2.033 0 .749-.717 1.588-2.404 1.588-2.498 0-3.053-1.098-3.168-2.383h-2.36C78.354 20.202 79.995 22 83.81 22c2.867 0 4.81-1.425 4.81-3.715 0-2.85-2.359-3.342-4.532-3.855v-.001ZM95.394 14.429c-1.71-.398-3.03-.491-3.03-1.705 0-.842.787-1.402 2.244-1.402 1.896 0 2.36.958 2.52 1.893h2.358c-.162-2.08-1.686-3.832-4.901-3.832-2.96 0-4.671 1.566-4.671 3.529 0 2.71 2.543 3.084 4.416 3.528 1.734.42 3.145.537 3.145 2.033 0 .749-.718 1.588-2.404 1.588-2.498 0-3.053-1.098-3.168-2.383h-2.36C89.66 20.202 91.302 22 95.116 22c2.868 0 4.81-1.425 4.81-3.715 0-2.85-2.359-3.342-4.531-3.855v-.001ZM33.885 4.807 27.78 21.65h2.82l1.351-3.98 3.984.002c1.203 0 1.324-.228 1.773-1l.474-.772 1.928 5.751h2.821L36.8 4.81h-2.913l-.002-.002Zm-1.19 10.53 2.611-7.916h.047l2.633 7.915h-5.29Z"/>
  </g>
</svg>
