<svg class="nuxt-icon--fill d-lg-none logo logo-mobile-menu" viewBox="0 0 589.54 213.85" xmlns="http://www.w3.org/2000/svg"><path d="m94.56 2.96 55.63 55.63-11.03 11.03-55.63-55.63c-3.55-3.55-3.96-8.9-.92-11.95 3.05-3.05 8.4-2.63 11.95.92zm32.8.63 38.89 38.89-11.02 11.02-38.89-38.89c-3.55-3.55-3.96-8.9-.92-11.95 3.04-3.04 8.39-2.63 11.94.93zm-57.9 6.56 64.56 64.56-11.03 11.03-64.56-64.57c-3.55-3.55-3.96-8.9-.92-11.95 3.05-3.04 8.4-2.63 11.95.93zM62.68 35.6l55.26 55.26-11.03 11.03-55.26-55.26c-3.55-3.55-3.96-8.9-.92-11.95 3.05-3.04 8.4-2.63 11.95.92zM2.96 119.29l55.63-55.63 11.03 11.03-55.63 55.63c-3.55 3.55-8.9 3.96-11.95.92-3.05-3.05-2.63-8.4.92-11.95zm.56-32.99 38.89-38.89 11.03 11.03-38.9 38.89c-3.55 3.55-8.9 3.96-11.95.92-3.04-3.05-2.63-8.4.93-11.95zm6.56 57.91 64.56-64.56 11.03 11.03-64.57 64.55c-3.55 3.55-8.9 3.96-11.95.92-3.04-3.04-2.63-8.39.93-11.94zm25.45 6.78 55.26-55.26 11.03 11.03-55.26 55.26c-3.55 3.55-8.9 3.96-11.95.92-3.04-3.05-2.63-8.4.92-11.95zm83.76 59.9-55.63-55.63 11.03-11.03 55.63 55.63c3.55 3.55 3.96 8.9.92 11.95-3.05 3.04-8.4 2.63-11.95-.92zm-32.79-.63-38.89-38.89 11.03-11.03 38.89 38.89c3.55 3.55 3.96 8.9.92 11.95-3.05 3.05-8.4 2.63-11.95-.92zm57.9-6.56-64.56-64.56 11.03-11.03 64.56 64.56c3.55 3.55 3.96 8.9.92 11.94-3.05 3.06-8.39 2.64-11.95-.91zm6.78-25.45-55.26-55.26 11.03-11.03 55.26 55.26c3.55 3.55 3.96 8.9.92 11.95-3.05 3.04-8.4 2.63-11.95-.92zm59.71-83.69-55.63 55.63-11.03-11.03 55.63-55.63c3.55-3.55 8.9-3.96 11.95-.92 3.04 3.05 2.63 8.4-.92 11.95zm-.56 32.81-38.89 38.89-11.03-11.03 38.89-38.89c3.55-3.55 8.9-3.96 11.95-.92 3.05 3.05 2.63 8.4-.92 11.95zm-6.56-57.91-64.56 64.56L128.18 123l64.56-64.56c3.55-3.55 8.9-3.96 11.95-.92s2.63 8.39-.92 11.94zm-25.45-6.77-55.26 55.26-11.03-11.03 55.26-55.26c3.55-3.55 8.9-3.96 11.95-.92 3.04 3.05 2.63 8.39-.92 11.95zm376.82 97.92c-3.66 3.01-16.34 13.12-26.02 13.12-8.39 0-12.47-7.31-12.47-14.84 0-14.41 15.91-23.01 27.09-27.53l11.4-4.73v33.98zm30.53 2.79c-1.51 8.82-6.24 10.11-8.82 10.11-6.67 0-6.67-6.45-6.67-18.93v-34.84c0-10.54 0-30.11-32.69-30.11-26.45 0-35.05 13.98-35.05 19.79 0 3.87 3.23 6.02 6.45 6.02 7.1 0 8.17-7.31 9.03-11.83 1.5-7.53 10.11-9.25 17.63-9.25 17.63 0 19.57 10.32 19.57 23.01v4.3l-16.34 6.67c-29.67 12.04-39.57 22.37-39.57 34.63 0 12.47 11.61 18.28 21.29 18.28 11.83 0 24.08-7.53 34.62-15.05 1.07 5.16 2.79 15.05 16.77 15.05 11.83 0 17.2-8.17 17.63-17.85h-3.85zm-117.75-2.15c-11.61 15.06-24.94 15.06-27.52 15.06-10.11 0-28.17-6.45-28.17-40.65 0-6.45.22-39.57 27.52-39.57 13.55 0 23.44 8.39 28.17 12.26v52.9zm0-58.93c-7.1-6.45-18.49-12.69-31.18-12.69-22.36 0-41.93 18.28-41.93 46.89s21.07 46.03 40.86 46.03c17.2 0 28.38-10.97 33.11-15.49 0 4.95 0 10.32 1.29 15.49 4.08-.86 16.34-2.37 27.09-2.8v-4.73c-14.19 0-14.19-1.29-14.19-24.73V34.57c-1.72 0-2.37.22-7.96 1.51-3.44.86-13.33 2.8-22.15 3.01v4.73c15.05 0 15.05.86 15.05 24.73v33.77zm-89.57-12.69c-3.44 0-8.6 1.94-11.83 2.58-8.17 1.51-13.98 2.58-19.57 3.01v4.73c15.05 0 16.34 0 16.34 23.66v26.02c0 22.37 0 24.73-12.69 24.73h-3.66v4.73h46.45v-4.73c-15.05 0-15.05-.86-15.05-24.73v-60zM249.63 177.6h5.16c1.72-8.6 3.87-11.83 5.16-13.77 3.44 3.87 15.7 17.85 39.14 17.85 27.31 0 44.73-16.99 44.73-41.08 0-27.1-17.42-35.27-45.16-47.53-16.56-7.31-34.19-15.06-34.19-32.05 0-9.46 6.45-21.72 24.51-21.72 16.77 0 31.83 11.18 37.85 34.63h4.52V36.72h-4.52c-.43 2.58-.86 6.67-5.59 12.47-5.16-5.59-14.19-15.06-32.9-15.06-23.65 0-37.63 16.78-37.63 35.27 0 27.1 23.44 37.21 39.35 44.09 1.29.43 8.39 3.44 9.68 4.09 14.41 6.24 29.03 14.41 29.03 31.19 0 13.12-10.54 27.75-31.61 27.75-33.33 0-40.43-34.84-42.36-44.74h-5.16v45.82zM356.42 65.21c0 5.94 4.88 11.02 10.81 11.02 5.94 0 10.6-5.09 10.6-11.02 0-5.94-4.66-11.02-10.6-11.02-6.15-.01-10.81 5.08-10.81 11.02z"></path></svg>