<svg xmlns="http://www.w3.org/2000/svg" viewBox="0 0 1587.4 1122.52">
  <defs>
    <clipPath id="a" clipPathUnits="userSpaceOnUse">
      <path d="M-314.455 644.975h1190.55v-841.89h-1190.55Z"/>
    </clipPath>
    <clipPath id="b" clipPathUnits="userSpaceOnUse">
      <path d="M-921.087 645.275h1190.55v-841.89h-1190.55Z"/>
    </clipPath>
  </defs>
  <path d="m0 0-90.902-243.734L-181.805 0h-74.176l127.991-343.179h74.177L74.178 0Z" style="fill:#fff;fill-opacity:1;fill-rule:nonzero;stroke:none" transform="matrix(1.33333 0 0 -1.33333 928.115 393.154)"/>
  <path d="M0 0c-53.538 0-98.455 28.062-124.653 65.454l54.169 39.24C-49.463 78.853-25.197 64.65-1.997 64.65c27.792 0 51.168 14.163 51.168 38.276 0 25.246-28.626 36.761-44.893 43.717-14.008 5.989-20.94 8.895-36.715 15.654-48.851 20.932-73.778 53.678-73.778 96.732 0 62.408 51.26 97.491 106.02 97.491 42.1 0 81.396-19.806 103.062-51.814l-51.416-37.307c-15.472 16.539-31.649 24.583-49.41 24.583-20.871 0-39.476-11.732-39.476-33.271 0-16.116 13.386-29.603 40.921-41.232 5.507-2.327 34.191-15.079 41.147-18.267 49.741-22.802 73.922-53.957 73.922-95.243C118.555 41.063 66.545 0 0 0" clip-path="url(#a)" style="fill:#fff;fill-opacity:1;fill-rule:nonzero;stroke:none" transform="matrix(1.33333 0 0 -1.33333 419.273 859.967)"/>
  <path d="M0 0c-41.087 0-88.837 22.112-109.067 78.103-6.889 19.064-6.659 33.759-6.703 49.298v322.261h69.199v-99.259H59.698l-25.212-67.601h-81.057V127.265c.051-10.775.552-23.851 5.324-33.794 7.91-16.484 24.073-27.39 41.247-27.39 12.238 0 25.617 5.092 36.2 13.704l43.261-49.442C58.05 11.034 29.216 0 0 0" clip-path="url(#b)" style="fill:#fff;fill-opacity:1;fill-rule:nonzero;stroke:none" transform="matrix(1.33333 0 0 -1.33333 1228.116 860.366)"/>
</svg>
