<svg width="32" height="32" viewBox="0 0 32 32" fill="none" xmlns="http://www.w3.org/2000/svg">
<g clip-path="url(#clip0_383_592)">
<path d="M7.70406 2.31876C10.7403 0.477657 14.3027 -0.301135 17.8303 0.10505C21.3578 0.511238 24.65 2.07928 27.1883 4.56227L26.1143 5.66033C23.8196 3.4157 20.8434 1.99816 17.6546 1.63097C14.4657 1.26377 11.2452 1.96777 8.50042 3.63212C5.75566 5.29648 3.64251 7.8266 2.49381 10.824C1.34512 13.8214 1.22614 17.1157 2.1556 20.1882L0.68543 20.6329C-0.342744 17.2342 -0.211114 13.59 1.05957 10.2743C2.33026 6.95862 4.66781 4.15985 7.70406 2.31876Z" fill="#E4FF30"/>
<path d="M14.2405 31.9029C17.7698 32.2934 21.3287 31.4988 24.3567 29.6442C27.3848 27.7897 29.7098 24.9805 30.9658 21.6592C32.2217 18.3379 32.3371 14.6931 31.2938 11.299L29.8256 11.7503C30.7687 14.8185 30.6644 18.1134 29.5291 21.1159C28.3937 24.1184 26.2918 26.6579 23.5545 28.3344C20.8171 30.0109 17.5999 30.7293 14.4094 30.3763C11.2189 30.0233 8.23649 28.619 5.93187 26.3846L4.86268 27.4874C7.41204 29.959 10.7112 31.5124 14.2405 31.9029Z" fill="#E4FF30"/>
<path d="M4.23758 23.5515C4.06445 22.721 3.25088 22.1882 2.42043 22.3613C1.58997 22.5344 1.0571 23.348 1.23023 24.1784C1.40336 25.0089 2.21692 25.5418 3.04738 25.3686L3.25636 26.3711C1.87227 26.6596 0.51633 25.7715 0.227784 24.3874C-0.0607628 23.0033 0.827353 21.6474 2.21145 21.3588C3.59554 21.0703 4.95148 21.9584 5.24003 23.3425C5.52857 24.7266 4.64046 26.0825 3.25636 26.3711L3.04738 25.3686C3.87784 25.1955 4.41071 24.3819 4.23758 23.5515Z" fill="#E4FF30"/>
<path d="M17.5037 15.6865C17.3305 14.8561 16.517 14.3232 15.6865 14.4963C14.8561 14.6695 14.3232 15.483 14.4963 16.3135C14.6695 17.1439 15.483 17.6768 16.3135 17.5037L16.5225 18.5061C15.1384 18.7947 13.7824 17.9066 13.4939 16.5225C13.2053 15.1384 14.0934 13.7824 15.4775 13.4939C16.8616 13.2053 18.2176 14.0935 18.5061 15.4775C18.7947 16.8616 17.9066 18.2176 16.5225 18.5061L16.3135 17.5037C17.1439 17.3305 17.6768 16.517 17.5037 15.6865Z" fill="#E4FF30"/>
<path d="M30.6549 7.58402C30.4817 6.75357 29.6682 6.2207 28.8377 6.39383C28.0073 6.56695 27.4744 7.38052 27.6475 8.21097C27.8206 9.04143 28.6342 9.5743 29.4647 9.40117L29.6737 10.4036C28.2896 10.6922 26.9336 9.80405 26.6451 8.41996C26.3565 7.03587 27.2446 5.67993 28.6287 5.39138C30.0128 5.10283 31.3688 5.99095 31.6573 7.37504C31.9459 8.75913 31.0577 10.1151 29.6737 10.4036L29.4647 9.40117C30.2951 9.22804 30.828 8.41448 30.6549 7.58402Z" fill="#E4FF30"/>
<path d="M7.31022 17.4317C8.73083 16.4242 10.7002 16.1937 14.2266 16.0876L14.2728 17.6228C10.6527 17.7318 9.17738 17.9906 8.19875 18.6846C7.71631 19.0267 7.31055 19.5084 6.8276 20.2618C6.33332 21.0329 5.81922 21.9858 5.0582 23.2855L3.73267 22.5095C4.45412 21.2773 5.01975 20.2359 5.53446 19.4329C6.06051 18.6123 6.59303 17.9403 7.31022 17.4317ZM28.827 9.43247C28.4067 11.8247 27.36 13.9204 25.5045 15.2427C23.6422 16.5698 21.0957 17.0254 17.8714 16.3986L18.1645 14.8908C21.1067 15.4627 23.1892 15.0066 24.6131 13.9919C26.0436 12.9724 26.94 11.2961 27.3142 9.16662L28.827 9.43247Z" fill="#E4FF30"/>
</g>
<defs>
<clipPath id="clip0_383_592">
<rect width="32" height="32" fill="white"/>
</clipPath>
</defs>
</svg>
