<svg width="1157" height="175" viewBox="0 0 1157 175" fill="none" xmlns="http://www.w3.org/2000/svg">
<mask id="mask0_331_344" style="mask-type:alpha" maskUnits="userSpaceOnUse" x="13" y="0" width="1132" height="175">
<path d="M80.8197 174.72C60.1797 174.72 43.7797 168.96 31.6197 157.44C19.4597 145.76 13.3797 128.96 13.3797 107.04V67.6799C13.3797 45.7599 19.4597 29.0399 31.6197 17.5199C43.7797 5.83985 60.1797 -0.00014782 80.8197 -0.00014782C101.46 -0.00014782 117.86 5.83985 130.02 17.5199C142.34 29.0399 148.5 45.7599 148.5 67.6799V107.04C148.5 128.96 142.34 145.76 130.02 157.44C117.86 168.96 101.46 174.72 80.8197 174.72ZM80.8197 151.44C94.0997 151.44 104.34 147.6 111.54 139.92C118.74 132.08 122.34 121.44 122.34 108V66.7199C122.34 53.2799 118.74 42.7199 111.54 35.0399C104.34 27.1999 94.0997 23.2799 80.8197 23.2799C67.8597 23.2799 57.6997 27.1999 50.3397 35.0399C42.9797 42.7199 39.2997 53.2799 39.2997 66.7199V108C39.2997 121.44 42.9797 132.08 50.3397 139.92C57.6997 147.6 67.8597 151.44 80.8197 151.44ZM179.184 171.36V3.35985H249.744C260.144 3.35985 269.264 5.19985 277.104 8.87985C285.104 12.3999 291.264 17.5199 295.584 24.2399C300.064 30.9599 302.304 38.9599 302.304 48.2399V50.8799C302.304 61.4399 299.744 69.9199 294.624 76.3199C289.664 82.5599 283.584 86.9599 276.384 89.5199V93.3599C282.464 93.6799 287.344 95.7599 291.024 99.5999C294.704 103.28 296.544 108.64 296.544 115.68V171.36H270.384V119.28C270.384 114.96 269.264 111.52 267.024 108.96C264.784 106.4 261.184 105.12 256.224 105.12H205.104V171.36H179.184ZM205.104 81.5999H246.864C256.144 81.5999 263.344 79.2799 268.464 74.6399C273.584 69.8399 276.144 63.3599 276.144 55.1999V53.2799C276.144 45.1199 273.584 38.7199 268.464 34.0799C263.504 29.2799 256.304 26.8798 246.864 26.8798H205.104V81.5999ZM330.825 171.36V3.35985H356.745V73.1999H360.585L423.225 3.35985H457.065L381.225 86.1599L459.705 171.36H424.905L360.585 100.08H356.745V171.36H330.825ZM479.184 171.36V3.35985H585.024V26.8798H505.104V75.1199H578.304V98.6399H505.104V147.84H586.224V171.36H479.184ZM670.367 174.72C657.727 174.72 646.527 172.48 636.767 168C627.007 163.52 619.327 156.96 613.727 148.32C608.287 139.52 605.567 128.88 605.567 116.4V110.4H631.247V116.4C631.247 128.24 634.767 137.12 641.807 143.04C649.007 148.96 658.527 151.92 670.367 151.92C682.367 151.92 691.407 149.44 697.487 144.48C703.567 139.36 706.607 132.8 706.607 124.8C706.607 119.52 705.167 115.2 702.287 111.84C699.407 108.48 695.327 105.84 690.047 103.92C684.767 101.84 678.447 99.9199 671.087 98.1599L662.207 95.9999C651.487 93.4399 642.127 90.3199 634.127 86.6399C626.287 82.7999 620.207 77.7599 615.887 71.5199C611.567 65.2799 609.407 57.2799 609.407 47.5199C609.407 37.5999 611.807 29.1199 616.607 22.0799C621.567 15.0399 628.367 9.59986 637.007 5.75985C645.647 1.91985 655.807 -0.00014782 667.487 -0.00014782C679.167 -0.00014782 689.567 1.99986 698.687 5.99986C707.967 9.99986 715.247 15.9199 720.527 23.7599C725.807 31.5999 728.447 41.4399 728.447 53.2799V61.9199H702.767V53.2799C702.767 46.0799 701.247 40.2399 698.207 35.7599C695.327 31.2799 691.247 27.9999 685.967 25.9199C680.687 23.8399 674.527 22.7999 667.487 22.7999C657.247 22.7999 649.247 24.9599 643.487 29.2799C637.887 33.4399 635.087 39.2799 635.087 46.7999C635.087 51.9199 636.287 56.1599 638.687 59.5199C641.247 62.7199 644.927 65.3599 649.727 67.4399C654.527 69.5199 660.527 71.3599 667.727 72.9599L676.607 75.1199C687.487 77.5199 697.087 80.6399 705.407 84.4799C713.727 88.1599 720.287 93.1999 725.087 99.5999C729.887 106 732.287 114.24 732.287 124.32C732.287 134.4 729.727 143.2 724.607 150.72C719.647 158.24 712.527 164.16 703.247 168.48C693.967 172.64 683.007 174.72 670.367 174.72ZM793.248 171.36V26.8798H741.648V3.35985H870.768V26.8798H819.168V171.36H793.248ZM950.351 174.72C929.711 174.72 913.311 168.96 901.151 157.44C888.991 145.76 882.911 128.96 882.911 107.04V67.6799C882.911 45.7599 888.991 29.0399 901.151 17.5199C913.311 5.83985 929.711 -0.00014782 950.351 -0.00014782C970.991 -0.00014782 987.391 5.83985 999.551 17.5199C1011.87 29.0399 1018.03 45.7599 1018.03 67.6799V107.04C1018.03 128.96 1011.87 145.76 999.551 157.44C987.391 168.96 970.991 174.72 950.351 174.72ZM950.351 151.44C963.631 151.44 973.871 147.6 981.071 139.92C988.271 132.08 991.871 121.44 991.871 108V66.7199C991.871 53.2799 988.271 42.7199 981.071 35.0399C973.871 27.1999 963.631 23.2799 950.351 23.2799C937.391 23.2799 927.231 27.1999 919.871 35.0399C912.511 42.7199 908.831 53.2799 908.831 66.7199V108C908.831 121.44 912.511 132.08 919.871 139.92C927.231 147.6 937.391 151.44 950.351 151.44ZM1094.08 99.8399C1084.48 99.8399 1075.84 97.7599 1068.16 93.5999C1060.64 89.2799 1054.64 83.3599 1050.16 75.8399C1045.84 68.3199 1043.68 59.6799 1043.68 49.9199C1043.68 40.1599 1045.84 31.5199 1050.16 23.9999C1054.64 16.4799 1060.64 10.6399 1068.16 6.47985C1075.84 2.15985 1084.48 -0.00014782 1094.08 -0.00014782C1103.68 -0.00014782 1112.24 2.15985 1119.76 6.47985C1127.44 10.6399 1133.44 16.4799 1137.76 23.9999C1142.24 31.5199 1144.48 40.1599 1144.48 49.9199C1144.48 59.6799 1142.24 68.3199 1137.76 75.8399C1133.44 83.3599 1127.44 89.2799 1119.76 93.5999C1112.24 97.7599 1103.68 99.8399 1094.08 99.8399ZM1094.08 89.9999C1106.24 89.9999 1115.92 86.3999 1123.12 79.1999C1130.48 71.8399 1134.16 62.0799 1134.16 49.9199C1134.16 37.7599 1130.48 28.0799 1123.12 20.8799C1115.92 13.5199 1106.24 9.83985 1094.08 9.83985C1081.92 9.83985 1072.16 13.5199 1064.8 20.8799C1057.44 28.0799 1053.76 37.7599 1053.76 49.9199C1053.76 62.0799 1057.44 71.8399 1064.8 79.1999C1072.16 86.3999 1081.92 89.9999 1094.08 89.9999ZM1076.8 76.0799V22.7999H1097.2C1103.12 22.7999 1107.6 24.2399 1110.64 27.1199C1113.68 29.9999 1115.2 33.4399 1115.2 37.4399C1115.2 40.4799 1114.4 43.1999 1112.8 45.5999C1111.36 47.8399 1108.96 49.5999 1105.6 50.8799V52.7999C1108.32 52.9599 1110.24 53.9199 1111.36 55.6799C1112.64 57.2799 1113.28 59.2799 1113.28 61.6799V76.0799H1103.44V61.4399C1103.44 58.0799 1101.76 56.3999 1098.4 56.3999H1086.4V76.0799H1076.8ZM1086.4 47.7599H1097.44C1100.16 47.7599 1102.16 46.9599 1103.44 45.3599C1104.72 43.5999 1105.36 41.6799 1105.36 39.5999C1105.36 37.3599 1104.72 35.5199 1103.44 34.0799C1102.16 32.4799 1100.16 31.6799 1097.44 31.6799H1086.4V47.7599Z" fill="#241F1F"/>
</mask>
<g mask="url(#mask0_331_344)">
<rect x="-142" y="-91.6401" width="1440" height="333" fill="url(#paint0_linear_331_344)"/>
</g>
<defs>
<linearGradient id="paint0_linear_331_344" x1="578" y1="241.36" x2="578" y2="-274.14" gradientUnits="userSpaceOnUse">
<stop stop-color="#241F1F" stop-opacity="0"/>
<stop offset="1" stop-color="#241F1F"/>
</linearGradient>
</defs>
</svg>
