<svg xmlns="http://www.w3.org/2000/svg" width="1138" height="175" fill="none"><mask id="a" width="1113" height="175" x="13" y="0" maskUnits="userSpaceOnUse" style="mask-type:alpha"><path fill="#241f1f" d="M81.046 174.72q-30.96 0-49.2-17.28-18.24-17.52-18.24-50.4V67.68q0-32.88 18.24-50.16Q50.086 0 81.046 0t49.2 17.52q18.48 17.28 18.48 50.16v39.36q0 32.88-18.48 50.4-18.24 17.28-49.2 17.28m0-23.28q19.92 0 30.72-11.52 10.8-11.76 10.8-31.92V66.72q0-20.16-10.8-31.68-10.8-11.76-30.72-11.76-19.44 0-30.48 11.76-11.04 11.52-11.04 31.68V108q0 20.16 11.04 31.92 11.04 11.52 30.48 11.52m98.365 19.92v-168h70.56q15.6 0 27.36 5.52 12 5.28 18.48 15.36 6.72 10.08 6.72 24v2.64q0 15.84-7.68 25.44-7.44 9.36-18.24 13.2v3.84q9.12.48 14.64 6.24 5.52 5.52 5.52 16.08v55.68h-26.16v-52.08q0-6.48-3.36-10.32t-10.8-3.84h-51.12v66.24zm25.92-89.76h41.76q13.92 0 21.6-6.96 7.68-7.2 7.68-19.44v-1.92q0-12.24-7.68-19.2-7.44-7.2-21.6-7.2h-41.76zm125.72 89.76v-168h25.92V73.2h3.84l62.64-69.84h33.84l-75.84 82.8 78.48 85.2h-34.8l-64.32-71.28h-3.84v71.28zm148.36 0v-168h105.84v23.52h-79.92v48.24h73.2v23.52h-73.2v49.2h81.12v23.52zm191.182 3.36q-18.96 0-33.6-6.72t-23.04-19.68q-8.16-13.2-8.16-31.92v-6h25.68v6q0 17.76 10.56 26.64 10.8 8.88 28.56 8.88 18 0 27.12-7.44 9.12-7.68 9.12-19.68 0-7.92-4.32-12.96t-12.24-7.92q-7.92-3.12-18.96-5.76l-8.88-2.16q-16.08-3.84-28.08-9.36-11.76-5.76-18.24-15.12t-6.48-24q0-14.88 7.2-25.44 7.44-10.56 20.4-16.32T667.713 0t31.2 6q13.92 6 21.84 17.76t7.92 29.52v8.64h-25.68v-8.64q0-10.8-4.56-17.52-4.32-6.72-12.24-9.84t-18.48-3.12q-15.36 0-24 6.48-8.4 6.24-8.4 17.52 0 7.68 3.6 12.72 3.84 4.8 11.04 7.92t18 5.52l8.88 2.16q16.32 3.6 28.8 9.36 12.48 5.52 19.68 15.12t7.2 24.72-7.68 26.4q-7.44 11.28-21.36 17.76-13.92 6.24-32.88 6.24m122.882-3.36V26.88h-51.6V3.36h129.12v23.52h-51.6v144.48zm71.893 0 48-168h45.6l47.762 168h-26.642l-11.04-39.6h-65.76l-11.04 39.6zm44.4-63.6h52.8l-24.48-88.32h-3.84zm165.082-7.92q-14.4 0-25.92-6.24-11.28-6.48-18-17.76-6.48-11.28-6.48-25.92t6.48-25.92q6.72-11.28 18-17.52Q1060.45 0 1074.85 0t25.68 6.48q11.52 6.24 18 17.52 6.72 11.28 6.72 25.92t-6.72 25.92q-6.48 11.28-18 17.76-11.28 6.24-25.68 6.24m0-9.84q18.24 0 29.04-10.8 11.04-11.04 11.04-29.28t-11.04-29.04q-10.8-11.04-29.04-11.04t-29.28 11.04q-11.04 10.8-11.04 29.04t11.04 29.28q11.04 10.8 29.28 10.8m-17.28-13.92V22.8h20.4q8.88 0 13.44 4.32t4.56 10.32q0 4.56-2.4 8.16-2.16 3.36-7.2 5.28v1.92q4.08.24 5.76 2.88 1.92 2.4 1.92 6v14.4h-9.84V61.44q0-5.04-5.04-5.04h-12v19.68zm9.6-28.32h11.04q4.08 0 6-2.4 1.92-2.64 1.92-5.76 0-3.36-1.92-5.52-1.92-2.4-6-2.4h-11.04z"/></mask><g mask="url(#a)"><path fill="url(#b)" d="M-151-91.64h1440v333H-151z"/></g><defs><linearGradient id="b" x1="569" x2="569" y1="241.36" y2="-274.14" gradientUnits="userSpaceOnUse"><stop stop-color="#241f1f" stop-opacity="0"/><stop offset="1" stop-color="#241f1f"/></linearGradient></defs></svg>